<svg width="212" height="39" viewBox="0 0 212 39" fill="none" xmlns="http://www.w3.org/2000/svg" style="background-color: black;">
<path d="M101.056 9.15173C101.056 5.19666 98.157 2.49653 91.213 2.49653H84.6708V15.8069H91.213C98.157 15.8069 101.056 13.1068 101.056 9.15173ZM86.1975 3.92503H91.213C97.1258 3.92503 99.4929 5.97766 99.4929 9.15173C99.4929 12.3258 97.1291 14.3818 91.213 14.3818H86.1975V3.92503ZM61.7461 12.1956C61.7461 9.97279 60.2294 9.18845 58.1536 8.86136C59.7105 8.46085 60.7852 7.71322 60.7852 5.89089C60.7852 3.381 58.8433 2.48318 55.8869 2.48318H45.2399V15.8937H56.9048C60.3634 15.8937 61.7461 14.3617 61.7461 12.1956ZM46.7767 3.91836H55.8869C58.1168 3.91836 59.3455 4.51245 59.3455 6.14121C59.3455 8.03697 57.6547 8.26727 55.1939 8.26727H46.7767V3.91836ZM46.7767 9.70578H56.138C58.5788 9.70578 60.3064 10.0128 60.3064 11.9854C60.3064 13.4973 59.3254 14.4552 56.9048 14.4552H46.7767V9.70578ZM70.853 11.0442H72.1052C74.9511 11.0642 77.3384 9.96945 77.3384 6.78537C77.3384 3.89833 75.4835 2.72349 73.0193 2.50988H63.0586V3.90834H72.1823C74.2012 3.90834 75.7614 4.63594 75.7614 6.78203C75.7614 8.92811 74.1643 9.65905 72.1253 9.65905H65.5094V11.0976H68.66L75.4735 15.8937H77.8975L70.853 11.0408V11.0442ZM134.313 2.55327H122.89V3.98177H134.313V2.55327ZM122.89 15.837H134.313V14.4085H122.89V15.837ZM183.122 15.837H194.546V14.4085H183.122V15.837ZM172.375 3.94506V15.8303H173.902V3.94506H180.862V2.5199H165.411V3.94506H172.375ZM205.016 11.0241H206.255C209.08 11.0442 211.444 9.95944 211.444 6.79872C211.444 3.638 209.154 2.5199 206.291 2.5199H183.119V3.94506H206.332C208.334 3.94506 209.881 4.66932 209.881 6.79872C209.881 8.92811 208.297 9.65237 206.275 9.65237H197.365V11.0775H202.84L209.596 15.8336H212L205.016 11.0208V11.0241ZM119.927 9.80257H130.614V8.42747H114.794V9.84596H118.483V10.0262C118.483 13.0534 115.5 14.4519 111.265 14.4519C106.501 14.4519 104.1 12.2223 104.1 9.19512C104.1 6.16791 106.353 3.93838 112.012 3.93838C114.757 3.93838 116.83 4.48242 118.139 4.87959L118.483 3.59127C117.663 3.33761 115.393 2.57664 112.012 2.57664C105.392 2.57664 102.627 5.42362 102.627 9.19512C102.627 12.9666 105.536 15.8103 111.265 15.8103C115.932 15.8103 119.799 14.2983 119.927 9.80257ZM81.4867 2.52991H79.96V15.8403H81.4867V2.52991ZM191.272 8.26393H183.119V9.68909H191.272V8.26393ZM160.245 2.49987V2.4932H158.587L155.972 8.18049L153.398 13.8678L151.355 8.19718L149.236 2.48986H147.672L145.553 8.17715L143.511 13.8644L140.916 8.19384L138.321 2.48652H136.66L142.747 15.8003H144.351L146.47 10.0929L148.456 4.63261L150.441 10.0929L152.541 15.8003H154.161L159.518 4.08524L162.913 10.2832L163.502 11.2711H159.819V12.6996H164.222L166.013 15.8336H167.564L160.258 2.48318H160.248L160.245 2.49987ZM113.512 36.4267H115.038V23.1163H113.512V36.4267ZM101.053 23.1697H94.5109V36.4801H101.053C107.997 36.4801 110.897 33.78 110.897 29.8249C110.897 25.8698 107.997 23.1697 101.053 23.1697ZM101.053 35.0549H96.0377V24.5982H101.053C106.966 24.5982 109.333 26.6508 109.333 29.8282C109.333 33.0057 106.969 35.0549 101.053 35.0549ZM126.958 23.0696C121.246 23.0696 118.269 25.9633 118.269 29.7949C118.269 33.6264 121.246 36.5202 126.958 36.5202C132.67 36.5202 135.646 33.6264 135.646 29.7949C135.646 25.9633 132.67 23.0696 126.958 23.0696ZM126.958 35.1384C122.153 35.1384 119.769 32.8721 119.769 29.7949C119.769 26.7176 122.153 24.4513 126.958 24.4513C131.762 24.4513 134.129 26.7176 134.129 29.7949C134.129 32.8721 131.745 35.1384 126.958 35.1384ZM51.6448 23.143C51.608 23.143 51.5846 23.143 51.5511 23.1463C51.367 23.1463 51.1828 23.1564 50.9953 23.163C50.8681 23.1664 50.8915 23.1664 50.9853 23.163C48.28 23.2899 45.0993 24.0175 45.0993 26.9913C45.0993 30.142 48.896 30.3756 52.5087 30.5558C55.7965 30.7361 58.1837 30.8262 58.1837 32.5384C58.1837 34.611 54.5343 35.0249 52.4919 35.0249C49.8 35.0249 47.4496 34.5576 45.0993 33.78L44.7008 35.0583C47.1215 35.9227 49.7063 36.3733 52.2375 36.3733C55.4918 36.3733 59.667 35.6357 59.667 32.4816C59.667 29.5612 56.1782 29.3309 52.6024 29.1674C49.5489 29.0239 46.4519 28.5499 46.5657 26.9145C46.6863 25.1723 48.9228 24.5882 51.521 24.5381C53.1381 24.5081 65.5228 24.5114 66.4971 24.5114V36.3967H68.054V24.5281H74.6666L74.6063 23.133C74.6063 23.133 53.3223 23.0796 51.6515 23.1363M90.0713 31.0164C90.0713 34.0904 87.7176 35.115 83.7166 35.115C79.7155 35.115 77.3618 34.0904 77.3618 31.0164V23.1931H75.8685V31.0164C75.8685 34.8714 78.4834 36.5135 83.7166 36.5135C88.9497 36.5135 91.5646 34.8747 91.5646 31.0164V23.1931H90.0679V31.0164H90.0713Z" fill="white"/>
<path d="M16.0476 7.61309C14.6313 6.66521 13.6972 5.05315 13.6972 3.22413C13.6972 2.73684 13.7675 2.26624 13.8947 1.819C5.88266 4.04185 0 11.3646 0 20.0624C0 21.818 0.244413 23.5168 0.693062 25.1289C0.997742 24.8352 1.33925 24.5682 1.72094 24.3479C3.36821 23.4 5.32017 23.4401 6.88375 24.2811C6.41836 22.9594 6.1639 21.541 6.1639 20.0624C6.1639 14.0213 10.3892 8.9448 16.0476 7.61309Z" fill="white"/>
<path d="M24.0998 1.819C24.2237 2.26624 24.2974 2.73684 24.2974 3.22413C24.2974 5.04981 23.3632 6.66187 21.947 7.61309C27.6053 8.9448 31.8306 14.018 31.8306 20.0624C31.8306 21.5276 31.5795 22.9361 31.1208 24.2478C32.6844 23.4167 34.6263 23.38 36.2703 24.3245C36.6586 24.5481 37.0001 24.8151 37.3082 25.1122C37.7535 23.5035 37.9979 21.8113 37.9979 20.0624C37.9979 11.3646 32.1152 4.04185 24.1032 1.819H24.0998Z" fill="white"/>
<path d="M28.3218 28.837C25.9815 31.3101 22.6668 32.8555 18.9939 32.8555C15.321 32.8555 12.0064 31.3068 9.66269 28.8336C9.69283 30.6893 8.74196 32.5083 7.01767 33.4996C6.70965 33.6765 6.38823 33.82 6.06011 33.9302C9.45176 37.0742 13.9952 39 18.9939 39C23.9927 39 28.5495 37.0675 31.9445 33.9135C31.6097 33.8033 31.2815 33.6565 30.9668 33.4762C29.2526 32.4883 28.3017 30.6827 28.3218 28.837Z" fill="white"/>
<path d="M6.52885 26.524C5.51436 25.6195 3.99097 25.4159 2.74881 26.1302C1.20198 27.0213 0.672975 28.9972 1.56358 30.5392C2.45753 32.0811 4.43962 32.6085 5.98645 31.7207C7.46297 30.8696 8.01207 29.0272 7.27883 27.5186L11.3368 25.1823C11.3368 25.1823 11.3435 25.1856 18.6591 30.5592C18.9102 30.7427 19.2584 30.7594 19.533 30.5792C20.966 29.6246 25.265 26.761 25.265 26.761C25.2917 26.7443 25.3219 26.7209 25.3453 26.7009C25.8341 26.3104 25.9112 25.5995 25.5161 25.1122C25.1243 24.6249 24.4112 24.5481 23.9224 24.942L19.7138 28.3196V20.286C19.7138 19.9589 19.8946 19.6585 20.1859 19.5017L26.6277 16.4311L26.6511 24.8252C26.6511 25.0454 26.7716 25.2524 26.9625 25.3625L30.6956 27.5119C29.9758 29.0172 30.5249 30.8496 31.9947 31.694C33.5415 32.5851 35.5236 32.0544 36.4176 30.5125C37.3115 28.9705 36.7792 26.9946 35.2323 26.1035C33.9835 25.3859 32.45 25.5928 31.4356 26.5107L27.2671 24.1109L28.2749 15.0994C28.3084 14.7923 28.151 14.4786 27.8564 14.335C26.3096 13.5741 21.6758 11.2978 21.6758 11.2978C21.6456 11.2845 21.6155 11.2678 21.582 11.2578C20.9994 11.0341 20.3399 11.3212 20.1155 11.9053C19.8912 12.486 20.1792 13.1435 20.7651 13.3671L25.7103 15.2729L19.4124 18.2801C19.1513 18.4203 18.8332 18.4203 18.5721 18.2801L12.147 15.2128L19.2986 11.0709C19.4894 10.9607 19.61 10.7538 19.61 10.5335V6.39487C21.0999 6.10449 22.2282 4.79615 22.2282 3.22747C22.2282 1.44852 20.7751 0 18.9906 0C17.206 0 15.7529 1.44852 15.7529 3.22747C15.7529 4.79615 16.8813 6.10449 18.3712 6.39487V10.894L10.0377 14.5286C9.75309 14.6521 9.56225 14.9458 9.58234 15.2729C9.69617 16.9884 10.0343 22.1284 10.0343 22.1284C10.0343 22.1617 10.041 22.1951 10.0444 22.2285C10.1415 22.846 10.7207 23.2665 11.3401 23.1697C11.9595 23.0729 12.3814 22.4955 12.2843 21.878L11.4405 16.4711L17.7953 19.5017C18.0866 19.6552 18.2674 19.9589 18.2674 20.286V28.4365L11.022 24.2945C10.8278 24.1843 10.5935 24.1843 10.3993 24.2945L6.52215 26.5273L6.52885 26.524ZM17.5274 3.22747C17.5274 2.41977 18.1837 1.7656 18.9939 1.7656C19.8042 1.7656 20.4604 2.41977 20.4604 3.22747C20.4604 4.03517 19.8042 4.68935 18.9939 4.68935C18.1837 4.68935 17.5274 4.03517 17.5274 3.22747ZM5.10255 30.192C4.39944 30.5959 3.50214 30.3556 3.09702 29.658C2.69189 28.9571 2.93296 28.0626 3.63272 27.6588C4.33582 27.2549 5.23312 27.4953 5.63824 28.1928C6.04337 28.8937 5.8023 29.7882 5.0992 30.1887L5.10255 30.192ZM34.8908 29.6313C34.4857 30.3322 33.5884 30.5692 32.8853 30.1653C32.1822 29.7615 31.9411 28.867 32.3496 28.1661C32.7547 27.4652 33.652 27.2282 34.3551 27.6321C35.0582 28.0359 35.2993 28.9304 34.8942 29.628L34.8908 29.6313Z" fill="white"/>
</svg>